<svg width="25" height="26" viewBox="0 0 25 26" fill="none" xmlns="http://www.w3.org/2000/svg">
<path d="M17.7702 16.0983L17.1384 16.9062H18.1641H18.96C19.1417 16.9062 19.3118 16.9769 19.4365 17.1016L24.3028 21.9679C24.3031 21.9682 24.3034 21.9685 24.3037 21.9688C24.5638 22.2327 24.5635 22.6591 24.2998 22.9228L22.9179 24.3046L22.916 24.3065C22.6587 24.5667 22.2345 24.5694 21.9698 24.3046L17.1016 19.4365C16.9769 19.3118 16.9062 19.1417 16.9062 18.96V18.1641V17.1384L16.0983 17.7702C14.4597 19.0513 12.3994 19.8125 10.1562 19.8125C4.82204 19.8125 0.5 15.4905 0.5 10.1562C0.5 4.82204 4.82204 0.5 10.1562 0.5C15.4905 0.5 19.8125 4.82204 19.8125 10.1562C19.8125 12.3994 19.0513 14.4597 17.7702 16.0983ZM3.40625 10.1562C3.40625 13.8897 6.42821 16.9062 10.1562 16.9062C13.8897 16.9062 16.9062 13.8843 16.9062 10.1562C16.9062 6.42282 13.8843 3.40625 10.1562 3.40625C6.42282 3.40625 3.40625 6.42821 3.40625 10.1562Z" fill="#FF0000" fill-opacity="0.75" stroke="black"/>
</svg>
